<?xml version="1.0" encoding="UTF-8" standalone="no"?>
<!-- Generated by Pixelmator Pro 3.6.9 -->

<svg
   width="1108"
   height="295"
   viewBox="0 0 1108 295"
   version="1.1"
   id="svg1"
   sodipodi:docname="doi-foundation.svg"
   inkscape:version="1.4.4 (dcaf3e7d9e, 2026-05-05)"
   xmlns:inkscape="http://www.inkscape.org/namespaces/inkscape"
   xmlns:sodipodi="http://sodipodi.sourceforge.net/DTD/sodipodi-0.dtd"
   xmlns="http://www.w3.org/2000/svg"
   xmlns:svg="http://www.w3.org/2000/svg">
  <defs
     id="defs1" />
  <sodipodi:namedview
     id="namedview1"
     pagecolor="#ffffff"
     bordercolor="#000000"
     borderopacity="0.25"
     inkscape:showpageshadow="2"
     inkscape:pageopacity="0.0"
     inkscape:pagecheckerboard="0"
     inkscape:deskcolor="#d1d1d1"
     inkscape:zoom="0.71571711"
     inkscape:cx="525.34723"
     inkscape:cy="110.37881"
     inkscape:window-width="1680"
     inkscape:window-height="981"
     inkscape:window-x="0"
     inkscape:window-y="0"
     inkscape:window-maximized="1"
     inkscape:current-layer="svg1" />
  <rect
     x="0"
     y="0"
     width="1108"
     height="295"
     fill="#ffffff"
     id="rect1" />
  <path
     id="Path"
     fill="#fab608"
     stroke="none"
     d="m 270.39999,147.20001 c 0,68.10001 -55.1,123.20001 -123.19998,123.20001 C 79.100006,270.40002 24,215.30002 24,147.20001 24,79.100006 79.100006,24 147.20001,24 c 68.09998,0 123.19998,55.100006 123.19998,123.20001" />
  <g
     id="Group"
     transform="translate(24,23.700012)">
    <path
       id="path1"
       fill="#000000"
       stroke="none"
       d="M 94,62.899994 H 77.899994 V 96.299988 108.79999 C 71.100006,99.299988 63.5,94.700012 53.199997,94.700012 c -21,0 -33.300003,14.799988 -33.300003,39.499998 0,24.19998 13.600006,39.5 32.5,39.5 11.5,0 19.300003,-4.1 25.100006,-13.6 l -0.399994,10.69998 c 0,0 21,0 21,0 V 62.899994 Z M 59.800003,154.70001 c -11.5,0 -18.5,-7.80002 -18.5,-21 0,-13.6 7,-21.40002 18.5,-21.40002 11.099991,0 18.5,7.80002 18.5,21.40002 0,13.19998 -6.900009,21 -18.5,21 z" />
    <path
       id="path2"
       fill="#000000"
       stroke="none"
       d="m 145.5,173.60001 c -24.29999,0 -40.5,-17 -40.5,-38.9 0,-21.5 16.60001,-38.900022 40.5,-38.900022 23.89999,0 40.10001,16.600002 40.10001,38.900022 0,21.9 -16.60001,38.9 -40.10001,38.9 z m -0.39999,-58.4 c -11.70002,0 -19,7.69998 -19,19.4 0,11.69998 7.29998,19.39999 19,19.39999 11.69998,0 19,-7.70001 19,-19.39999 0.1,-11.70002 -7.20002,-19.4 -19,-19.4 z" />
    <path
       id="path3"
       fill="#000000"
       stroke="none"
       d="m 203,62.899994 c 6.89999,0 12.20001,5.300018 12.20001,12.200012 C 215.20001,82 209.5,87.700012 203,87.700012 c -6.89999,0 -12.20001,-6.100006 -12.20001,-12.600006 0.1,-6.5 5.30002,-12.200012 12.20001,-12.200012 z m -10.5,36 h 21.10001 V 171 H 192.5 Z" />
  </g>
  <text
     id="text1"
     xml:space="preserve"
     x="259"
     y="83.700012"
     font-family="'Century Gothic'"
     font-size="34.9479px"
     font-weight="700"
     fill="#000000">®</text>
  <g
     id="g1"
     transform="translate(24,23.700012)">
    <path
       id="path4"
       fill="#000000"
       stroke="none"
       d="m 292.60001,63 h 63.6 v 19.399994 h -40.5 v 22.300016 h 40.5 v 19.4 h -40.5 v 46.6 h -23.1 z" />
    <path
       id="path5"
       fill="#000000"
       stroke="none"
       d="m 404.79999,173.60001 c -24.29999,0 -40.5,-17 -40.5,-38.9 0,-21.5 16.60003,-38.900022 40.5,-38.900022 23.90002,0 40.10003,16.600002 40.10003,38.900022 0,21.9 -16.60003,38.9 -40.10003,38.9 z m -0.39997,-58.4 c -11.70001,0 -19,7.69998 -19,19.4 0,11.69998 7.29999,19.39999 19,19.39999 11.69996,0 19,-7.70001 19,-19.39999 0.1,-11.70002 -7.20001,-19.4 -19,-19.4 z" />
    <path
       id="path6"
       fill="#000000"
       stroke="none"
       d="m 475.29999,136.29999 c 0,11.70001 4.10003,17.80002 15.79999,17.80002 11.70001,0 15.80004,-6.10001 15.80004,-17.80002 V 98.200012 H 528 v 38.099978 c 0,25.1 -11.29999,37.30002 -36.5,37.30002 -25.90002,0 -36.90002,-12.20002 -36.90002,-37.30002 V 98.200012 h 20.70001 z" />
    <path
       id="path7"
       fill="#000000"
       stroke="none"
       d="m 542.20001,98.200012 h 20.70001 V 109.5 c 7.69996,-9.29999 15.79999,-13.799988 26.69996,-13.799988 11.30004,0 18.60003,3.599976 23.10003,11.299988 2.79999,5.29999 2.79999,11.29999 2.79999,18.60001 0,0.79998 0,1.6 0,2.39999 v 42.10001 h -21.09998 v -35.70002 c 0,-13.79998 -1.20001,-21.89999 -13.80004,-21.89999 -6.09998,0 -10.89997,2.39999 -14.19996,6.89999 -3.60003,4.9 -3.60003,9.70002 -3.60003,15.80002 0,0.79999 0,1.59998 0,2.79999 v 31.60001 h -21.09998 z" />
    <path
       id="path8"
       fill="#000000"
       stroke="none"
       d="m 769.40002,170.70001 0.39997,-10.5 c -5.70001,9.29999 -13.39997,13.4 -24.70001,13.4 -18.59998,0 -32,-15 -32,-38.9 0,-24.30002 12.20001,-38.499998 32.80004,-38.499998 10.5,0 18.59998,4.899998 24.29999,14.199978 V 98.700012 h 19.89997 v 72.099978 c 0,-0.1 -20.69996,-0.1 -20.69996,-0.1 z m -17,-57.5 c -11.30004,0 -18.20001,8.09998 -18.20001,21.09998 0,13 6.89997,20.70001 18.20001,20.70001 11.29999,0 18.19996,-7.70001 18.19996,-20.70001 0.10003,-13.4 -7.19996,-21.09998 -18.19996,-21.09998 z" />
    <path
       id="path9"
       fill="#000000"
       stroke="none"
       d="M 815.20001,114.79999 H 805.09998 V 98.200012 h 10.10003 V 74.299988 h 21.09998 v 23.900024 h 10.10003 v 16.599978 h -10.10003 v 55.90002 h -21.09998 z" />
    <path
       id="path10"
       fill="#fab608"
       stroke="none"
       d="m 870.30005,63 c 6.8999,0 12.19995,5.299988 12.19995,12.200012 0,6.899994 -5.69995,12.599976 -12.19995,12.599976 -6.90003,0 -12.20007,-6.099976 -12.20007,-12.599976 C 858.20001,68.700012 863.40002,63 870.30005,63 Z" />
    <path
       id="path11"
       fill="#000000"
       stroke="none"
       d="m 933.90002,173.60001 c -24.30004,0 -40.5,-17 -40.5,-38.9 0,-21.5 16.59998,-38.900022 40.5,-38.900022 23.90003,0 40.09998,16.600002 40.09998,38.900022 0.40002,21.9 -16.19995,38.9 -40.09998,38.9 z m 0,-58.4 c -11.70007,0 -19,7.69998 -19,19.4 0,11.69998 7.29993,19.39999 19,19.39999 11.69996,0 19,-7.70001 19,-19.39999 0.1,-11.70002 -7.20007,-19.4 -19,-19.4 z" />
    <path
       id="path12"
       fill="#000000"
       stroke="none"
       d="m 987,98.200012 h 20.7 V 109.5 c 7.7,-9.29999 15.8,-13.799988 26.7,-13.799988 11.3,0 18.6,3.599976 23.1,11.299988 2.8,5.29999 2.8,11.29999 2.8,18.60001 0,0.79998 0,1.6 0,2.39999 v 42.10001 h -21.1 v -35.70002 c 0,-13.79998 -1.2,-21.89999 -13.8,-21.89999 -6.1,0 -10.9,2.39999 -14.2,6.89999 -3.6,4.9 -3.6,9.70002 -3.6,15.80002 0,0.79999 0,1.59998 0,2.79999 v 31.60001 h -21.1 z" />
    <path
       id="path13"
       fill="#000000"
       stroke="none"
       d="M 698.59998,63 H 682.79999 V 97.399994 109.70001 C 676.09998,100.39999 668.59998,95.799988 658.5,95.799988 c -20.70001,0 -32.79999,14.600002 -32.79999,38.900022 0,23.9 13.39997,38.9 32,38.9 11.29999,0 19,-4.10001 24.70001,-13.4 l -0.40002,10.5 c 0,0 20.70001,0 20.70001,0 V 63 Z m -33.69996,91.89999 c -11.30004,0 -18.20001,-7.69998 -18.20001,-20.69998 0,-13.40002 6.89997,-21.1 18.20001,-21.1 10.89997,0 18.19996,7.69998 18.19996,21.1 0.10003,13 -6.79999,20.69998 -18.19996,20.69998 z" />
  </g>
  <path
     id="path14"
     fill="#000000"
     stroke="none"
     d="m 883.79999,121.90002 h 21.10003 V 194 h -21.10003 z" />
</svg>
