<?xml version="1.0" encoding="UTF-8" standalone="no"?>
<svg
   width="237"
   height="83"
   viewBox="0 0 237 83"
   version="1.1"
   id="svg4"
   sodipodi:docname="orcid-logo.svg"
   inkscape:version="1.4.4 (dcaf3e7d9e, 2026-05-05)"
   xmlns:inkscape="http://www.inkscape.org/namespaces/inkscape"
   xmlns:sodipodi="http://sodipodi.sourceforge.net/DTD/sodipodi-0.dtd"
   xmlns="http://www.w3.org/2000/svg"
   xmlns:svg="http://www.w3.org/2000/svg">
  <defs
     id="defs4" />
  <sodipodi:namedview
     id="namedview4"
     pagecolor="#ffffff"
     bordercolor="#000000"
     borderopacity="0.25"
     inkscape:showpageshadow="2"
     inkscape:pageopacity="0.0"
     inkscape:pagecheckerboard="0"
     inkscape:deskcolor="#d1d1d1"
     inkscape:zoom="2.7084072"
     inkscape:cx="111.13543"
     inkscape:cy="99.135756"
     inkscape:window-width="1680"
     inkscape:window-height="981"
     inkscape:window-x="0"
     inkscape:window-y="0"
     inkscape:window-maximized="1"
     inkscape:current-layer="svg4" />
  <rect
     x="0"
     y="0"
     width="237"
     height="83"
     fill="white"
     id="rect1" />
  <g
     fill="none"
     fill-rule="nonzero"
     id="g4"
     transform="translate(8,8)">
    <path
       fill="#a6a8ab"
       d="M 26.922,15 C 43.418,15 54,26.975 54,41 54,54.708 43.885,66.999 26.922,66.999 10.427,67.156 0,54.866 0,41.157 0,26.975 10.738,15 26.922,15 Z m 0,45.538 c 11.205,0 19.608,-8.194 19.608,-19.381 0,-11.188 -8.248,-19.381 -19.608,-19.381 -11.204,0 -19.452,8.193 -19.452,19.38 0,11.03 8.248,19.382 19.452,19.382 z M 75.687,16 c 10.18,0 16.602,5.435 16.602,13.975 0,5.745 -2.976,10.093 -8.458,12.267 4.542,2.95 7.362,7.609 11.277,13.82 2.193,3.416 3.446,5.124 6.892,9.938 H 93.386 L 86.65,55.752 C 79.916,45.503 76.94,44.26 73.18,44.26 H 70.204 V 66 H 63 V 16 Z m -5.482,21.74 h 4.699 c 7.83,0 10.024,-4.038 9.867,-8.075 0,-4.659 -2.82,-7.61 -9.867,-7.61 h -4.7 V 37.74 Z m 76.331,-10.643 c -6.185,-3.614 -11.443,-5.342 -17.165,-5.342 -11.443,0 -19.948,8.17 -19.948,19.324 0,11.31 8.196,19.166 20.103,19.166 5.567,0 11.752,-2.043 17.474,-5.656 v 8.012 C 142.052,65.271 136.794,67 128.907,67 110.196,67 102,52.39 102,41.707 102,26.31 113.443,15 129.371,15 c 5.103,0 10.361,1.257 17.165,4.085 z"
       id="path1" />
    <path
       fill="#a5cd39"
       d="m 175,16 h 19.36 C 212.791,16 221,29.199 221,41 221,53.888 210.933,66 194.515,66 H 175 Z m 7.125,43.478 h 11.46 c 16.263,0 19.98,-12.422 19.98,-18.633 0,-10.093 -6.35,-18.634 -20.289,-18.634 H 182.28 v 37.267 h -0.154 z"
       id="path2" />
    <g
       fill="#a5cd39"
       id="g3">
      <path
         d="m 164.114,66 h -7.228 V 15.4 h 7.228 v 28.129 z m 1.1,-61.286 c 0,2.672 -2.2,4.715 -4.714,4.715 -2.671,0 -4.714,-2.2 -4.714,-4.715 0,-2.514 2.2,-4.714 4.714,-4.714 2.671,0 4.714,2.2 4.714,4.714 z"
         id="path3" />
    </g>
  </g>
</svg>
